<svg width="20" height="20" viewBox="0 0 20 20" fill="none" xmlns="http://www.w3.org/2000/svg">
<g clip-path="url(#clip0_119_14316)">
<path d="M6.66634 18.3332C7.12658 18.3332 7.49967 17.9601 7.49967 17.4998C7.49967 17.0396 7.12658 16.6665 6.66634 16.6665C6.2061 16.6665 5.83301 17.0396 5.83301 17.4998C5.83301 17.9601 6.2061 18.3332 6.66634 18.3332Z" stroke="white" stroke-width="1.66667" stroke-linecap="round" stroke-linejoin="round"/>
<path d="M15.8333 18.3332C16.2936 18.3332 16.6667 17.9601 16.6667 17.4998C16.6667 17.0396 16.2936 16.6665 15.8333 16.6665C15.3731 16.6665 15 17.0396 15 17.4998C15 17.9601 15.3731 18.3332 15.8333 18.3332Z" stroke="white" stroke-width="1.66667" stroke-linecap="round" stroke-linejoin="round"/>
<path d="M1.70801 1.7085H3.37467L5.59134 12.0585C5.67266 12.4375 5.88357 12.7764 6.18777 13.0167C6.49197 13.257 6.87043 13.3838 7.25801 13.3752H15.408C15.7873 13.3745 16.1551 13.2446 16.4505 13.0067C16.746 12.7688 16.9515 12.4373 17.033 12.0668L18.408 5.87516H4.26634" stroke="white" stroke-width="1.66667" stroke-linecap="round" stroke-linejoin="round"/>
</g>
<defs>
<clipPath id="clip0_119_14316">
<rect width="20" height="20" fill="white"/>
</clipPath>
</defs>
</svg>
