<svg width="48" height="48" viewBox="0 0 48 48" fill="none" xmlns="http://www.w3.org/2000/svg">
<path d="M0 10C0 4.47715 4.47715 0 10 0H38C43.5228 0 48 4.47715 48 10V38C48 43.5228 43.5228 48 38 48H10C4.47715 48 0 43.5228 0 38V10Z" fill="#00C2D2" fill-opacity="0.1"/>
<path d="M34 19L25.009 24.727C24.7039 24.9042 24.3573 24.9976 24.0045 24.9976C23.6517 24.9976 23.3051 24.9042 23 24.727L14 19" stroke="#00C2D2" stroke-width="2" stroke-linecap="round" stroke-linejoin="round"/>
<path d="M32 16H16C14.8954 16 14 16.8954 14 18V30C14 31.1046 14.8954 32 16 32H32C33.1046 32 34 31.1046 34 30V18C34 16.8954 33.1046 16 32 16Z" stroke="#00C2D2" stroke-width="2" stroke-linecap="round" stroke-linejoin="round"/>
</svg>
