<svg width="48" height="48" viewBox="0 0 48 48" fill="none" xmlns="http://www.w3.org/2000/svg">
<path d="M0 10C0 4.47715 4.47715 0 10 0H38C43.5229 0 48 4.47715 48 10V38C48 43.5229 43.5228 48 38 48H10C4.47715 48 0 43.5228 0 38V10Z" fill="#00C2D2" fill-opacity="0.1"/>
<path d="M18 30H16C15.4696 30 14.9609 29.7893 14.5858 29.4142C14.2107 29.0391 14 28.5304 14 28V23C14 22.4696 14.2107 21.9609 14.5858 21.5858C14.9609 21.2107 15.4696 21 16 21H32C32.5304 21 33.0391 21.2107 33.4142 21.5858C33.7893 21.9609 34 22.4696 34 23V28C34 28.5304 33.7893 29.0391 33.4142 29.4142C33.0391 29.7893 32.5304 30 32 30H30" stroke="#00C2D2" stroke-width="2" stroke-linecap="round" stroke-linejoin="round"/>
<path d="M18 21V15C18 14.7348 18.1054 14.4804 18.2929 14.2929C18.4804 14.1054 18.7348 14 19 14H29C29.2652 14 29.5196 14.1054 29.7071 14.2929C29.8946 14.4804 30 14.7348 30 15V21" stroke="#00C2D2" stroke-width="2" stroke-linecap="round" stroke-linejoin="round"/>
<path d="M29 26H19C18.4477 26 18 26.4477 18 27V33C18 33.5523 18.4477 34 19 34H29C29.5523 34 30 33.5523 30 33V27C30 26.4477 29.5523 26 29 26Z" stroke="#00C2D2" stroke-width="2" stroke-linecap="round" stroke-linejoin="round"/>
</svg>
