<svg width="45" height="45" viewBox="0 0 45 45" fill="none" xmlns="http://www.w3.org/2000/svg">
<path d="M0 9.35674C0 4.18916 4.18915 0 9.35672 0H35.5555C40.7231 0 44.9123 4.18915 44.9123 9.35672V35.5555C44.9123 40.7231 40.7231 44.9123 35.5556 44.9123H9.35674C4.18916 44.9123 0 40.7231 0 35.5556V9.35674Z" fill="#00C2D2" fill-opacity="0.1"/>
<path d="M16.8423 28.07H14.971C14.4746 28.07 13.9987 27.8728 13.6477 27.5219C13.2968 27.1709 13.0996 26.6949 13.0996 26.1986V21.5203C13.0996 21.024 13.2968 20.548 13.6477 20.197C13.9987 19.8461 14.4746 19.6489 14.971 19.6489H29.9417C30.438 19.6489 30.914 19.8461 31.265 20.197C31.6159 20.548 31.8131 21.024 31.8131 21.5203V26.1986C31.8131 26.6949 31.6159 27.1709 31.265 27.5219C30.914 27.8728 30.438 28.07 29.9417 28.07H28.0704" stroke="#00C2D2" stroke-width="1.87135" stroke-linecap="round" stroke-linejoin="round"/>
<path d="M16.8423 19.6491V14.035C16.8423 13.7869 16.9409 13.5489 17.1163 13.3734C17.2918 13.1979 17.5298 13.0994 17.778 13.0994H27.1347C27.3828 13.0994 27.6208 13.1979 27.7963 13.3734C27.9718 13.5489 28.0704 13.7869 28.0704 14.035V19.6491" stroke="#00C2D2" stroke-width="1.87135" stroke-linecap="round" stroke-linejoin="round"/>
<path d="M27.1347 24.3274H17.778C17.2612 24.3274 16.8423 24.7463 16.8423 25.2631V30.8771C16.8423 31.3939 17.2612 31.8128 17.778 31.8128H27.1347C27.6514 31.8128 28.0704 31.3939 28.0704 30.8771V25.2631C28.0704 24.7463 27.6514 24.3274 27.1347 24.3274Z" stroke="#00C2D2" stroke-width="1.87135" stroke-linecap="round" stroke-linejoin="round"/>
</svg>
