<svg width="64" height="64" viewBox="0 0 64 64" fill="none" xmlns="http://www.w3.org/2000/svg">
<path d="M0 32C0 14.3269 14.3269 0 32 0C49.6731 0 64 14.3269 64 32C64 49.6731 49.6731 64 32 64C14.3269 64 0 49.6731 0 32Z" fill="#00C2D2" fill-opacity="0.1"/>
<path d="M37.3337 44V41.3333C37.3337 39.9188 36.7718 38.5623 35.7716 37.5621C34.7714 36.5619 33.4148 36 32.0003 36H24.0003C22.5858 36 21.2293 36.5619 20.2291 37.5621C19.2289 38.5623 18.667 39.9188 18.667 41.3333V44" stroke="#00C2D2" stroke-width="2.66667" stroke-linecap="round" stroke-linejoin="round"/>
<path d="M37.333 20.1707C38.4767 20.4671 39.4895 21.135 40.2126 22.0694C40.9356 23.0038 41.3279 24.1518 41.3279 25.3333C41.3279 26.5148 40.9356 27.6628 40.2126 28.5972C39.4895 29.5316 38.4767 30.1995 37.333 30.496" stroke="#00C2D2" stroke-width="2.66667" stroke-linecap="round" stroke-linejoin="round"/>
<path d="M45.333 44V41.3333C45.3321 40.1516 44.9388 39.0037 44.2148 38.0698C43.4908 37.1358 42.4772 36.4688 41.333 36.1733" stroke="#00C2D2" stroke-width="2.66667" stroke-linecap="round" stroke-linejoin="round"/>
<path d="M28.0003 30.6667C30.9458 30.6667 33.3337 28.2789 33.3337 25.3333C33.3337 22.3878 30.9458 20 28.0003 20C25.0548 20 22.667 22.3878 22.667 25.3333C22.667 28.2789 25.0548 30.6667 28.0003 30.6667Z" stroke="#00C2D2" stroke-width="2.66667" stroke-linecap="round" stroke-linejoin="round"/>
</svg>
