<svg width="64" height="64" viewBox="0 0 64 64" fill="none" xmlns="http://www.w3.org/2000/svg">
<path d="M0 32C0 14.3269 14.3269 0 32 0C49.6731 0 64 14.3269 64 32C64 49.6731 49.6731 64 32 64C14.3269 64 0 49.6731 0 32Z" fill="#00C2D2" fill-opacity="0.1"/>
<path d="M32.0003 45.3334C39.3641 45.3334 45.3337 39.3639 45.3337 32.0001C45.3337 24.6363 39.3641 18.6667 32.0003 18.6667C24.6365 18.6667 18.667 24.6363 18.667 32.0001C18.667 39.3639 24.6365 45.3334 32.0003 45.3334Z" stroke="#00C2D2" stroke-width="2.66667" stroke-linecap="round" stroke-linejoin="round"/>
<path d="M32 40C36.4183 40 40 36.4183 40 32C40 27.5817 36.4183 24 32 24C27.5817 24 24 27.5817 24 32C24 36.4183 27.5817 40 32 40Z" stroke="#00C2D2" stroke-width="2.66667" stroke-linecap="round" stroke-linejoin="round"/>
<path d="M31.9997 34.6666C33.4724 34.6666 34.6663 33.4727 34.6663 31.9999C34.6663 30.5272 33.4724 29.3333 31.9997 29.3333C30.5269 29.3333 29.333 30.5272 29.333 31.9999C29.333 33.4727 30.5269 34.6666 31.9997 34.6666Z" stroke="#00C2D2" stroke-width="2.66667" stroke-linecap="round" stroke-linejoin="round"/>
</svg>
